<!DOCTYPE svg PUBLIC "-//W3C//DTD SVG 20010904//EN" "http://www.w3.org/TR/2001/REC-SVG-20010904/DTD/svg10.dtd">
<svg version="1.0" xmlns="http://www.w3.org/2000/svg" width="96px" height="96px" viewBox="0 0 960 960" preserveAspectRatio="xMidYMid meet">
<g id="layer101" fill="#f3a75e" stroke="none">
 <path d="M370 764 c-55 -24 -98 -61 -146 -127 -64 -89 -57 -127 35 -191 l41 -29 0 -82 c0 -67 3 -85 18 -98 24 -22 60 -22 84 0 17 15 18 15 18 -4 0 -27 31 -53 62 -53 28 0 58 28 58 55 0 17 1 17 18 2 41 -37 102 -8 102 48 0 27 1 27 18 12 24 -22 65 -21 85 1 14 16 17 44 17 181 0 139 -3 167 -19 199 -42 81 -91 102 -243 102 -78 -1 -124 -5 -148 -16z"/>
 </g>
<g id="layer102" fill="#ffcc80" stroke="none">
 <path d="M370 764 c-55 -24 -98 -61 -146 -127 -53 -73 -56 -104 -15 -149 l30 -33 9 25 c6 14 19 45 30 70 l21 45 0 -171 c1 -152 3 -173 19 -187 10 -10 30 -17 44 -17 40 0 58 29 58 93 0 55 12 79 32 59 7 -7 2 -33 -13 -81 -22 -68 -22 -71 -4 -91 34 -38 105 -15 105 35 0 17 1 17 18 2 41 -37 102 -8 102 48 0 27 1 27 18 12 24 -22 65 -21 85 1 14 16 17 44 17 181 0 139 -3 167 -19 199 -42 81 -91 102 -243 102 -78 -1 -124 -5 -148 -16z m325 -354 c3 -5 -3 -26 -14 -47 l-20 -38 -1 41 c0 22 3 44 7 47 9 10 21 9 28 -3z m-120 -19 c3 -5 -4 -31 -14 -58 l-20 -48 0 51 c-1 28 2 54 6 57 9 10 21 9 28 -2z"/>
 </g>

</svg>
